<svg width="30" height="30" viewBox="0 0 30 30" fill="none" xmlns="http://www.w3.org/2000/svg">
<path opacity="0.4" d="M14.965 29.3761C23.2299 29.3761 29.93 22.8001 29.93 14.6881C29.93 6.57607 23.2299 0 14.965 0C6.70006 0 0 6.57607 0 14.6881C0 22.8001 6.70006 29.3761 14.965 29.3761Z" fill="#292D32"/>
<path d="M14.9644 7.24121C11.8667 7.24121 9.35254 9.70881 9.35254 12.7492C9.35254 15.7309 11.732 18.1544 14.8896 18.2425H15.0243H15.129H15.159C18.1819 18.1397 20.5613 15.7309 20.5763 12.7492C20.5763 9.70881 18.0622 7.24121 14.9644 7.24121Z" fill="#292D32"/>
<path d="M25.1118 25.4836C22.4481 27.8924 18.8864 29.3759 14.9656 29.3759C11.0448 29.3759 7.4831 27.8924 4.81934 25.4836C5.1785 24.147 6.15122 22.9279 7.57289 21.9878C11.6583 19.3146 18.3028 19.3146 22.3583 21.9878C23.7949 22.9279 24.7527 24.147 25.1118 25.4836Z" fill="#292D32"/>
</svg>
